<svg class="railroad-diagram" width="548" height="247" viewBox="0 0 548 247" xmlns="http://www.w3.org/2000/svg" xmlns:xlink="http://www.w3.org/1999/xlink">
<g transform="translate(.5 .5)">
<g>
<path d="M20 21v20m10 -20v20m-10 -10h20"></path>
</g>
<path d="M40 31h10"></path>
<g>
<path d="M50 31h0"></path>
<path d="M50 31h10"></path>
<g>
<path d="M60 31h52"></path>
<path d="M436 31h52"></path>
<g class="terminal ">
<path d="M112 31h0"></path>
<path d="M148 31h0"></path>
<rect x="112" y="20" width="36" height="22" rx="10" ry="10"></rect>
<text x="130" y="35">&#60;%</text>
</g>
<path d="M148 31h10"></path>
<path d="M158 31h10"></path>
<g class="terminal ">
<path d="M168 31h0"></path>
<path d="M228 31h0"></path>
<rect x="168" y="20" width="60" height="22" rx="10" ry="10"></rect>
<text x="198" y="35">while</text>
</g>
<path d="M228 31h10"></path>
<path d="M238 31h10"></path>
<g class="non-terminal ">
<path d="M248 31h0"></path>
<path d="M300 31h0"></path>
<rect x="248" y="20" width="52" height="22"></rect>
<text x="274" y="35">expr</text>
</g>
<path d="M300 31h10"></path>
<path d="M310 31h10"></path>
<g class="terminal ">
<path d="M320 31h0"></path>
<path d="M356 31h0"></path>
<rect x="320" y="20" width="36" height="22" rx="10" ry="10"></rect>
<text x="338" y="35">%></text>
</g>
<path d="M356 31h10"></path>
<path d="M366 31h10"></path>
<g class="non-terminal ">
<path d="M376 31h0"></path>
<path d="M436 31h0"></path>
<rect x="376" y="20" width="60" height="22"></rect>
<text x="406" y="35">block</text>
</g>
</g>
<path d="M488 31a10 10 0 0 1 10 10v0a10 10 0 0 1 -10 10h-428a10 10 0 0 0 -10 10v8a10 10 0 0 0 10 10"></path>
<g>
<path d="M60 79h0"></path>
<path d="M488 79h0"></path>
<path d="M60 79a10 10 0 0 0 10 -10v0a10 10 0 0 1 10 -10"></path>
<g>
<path d="M80 59h388"></path>
</g>
<path d="M468 59a10 10 0 0 1 10 10v0a10 10 0 0 0 10 10"></path>
<path d="M60 79h20"></path>
<g>
<path d="M80 79h0"></path>
<path d="M468 79h0"></path>
<path d="M80 79h10"></path>
<g>
<path d="M90 79h0"></path>
<path d="M458 79h0"></path>
<path d="M90 79h20"></path>
<g>
<path d="M110 79h0"></path>
<path d="M438 79h0"></path>
<g class="terminal ">
<path d="M110 79h0"></path>
<path d="M146 79h0"></path>
<rect x="110" y="68" width="36" height="22" rx="10" ry="10"></rect>
<text x="128" y="83">&#60;%</text>
</g>
<path d="M146 79h10"></path>
<g>
<path d="M156 79h0"></path>
<path d="M312 79h0"></path>
<path d="M156 79h20"></path>
<g class="terminal ">
<path d="M176 79h20"></path>
<path d="M272 79h20"></path>
<rect x="196" y="68" width="76" height="22" rx="10" ry="10"></rect>
<text x="234" y="83">onbegin</text>
</g>
<path d="M292 79h20"></path>
<path d="M156 79a10 10 0 0 1 10 10v10a10 10 0 0 0 10 10"></path>
<g class="terminal ">
<path d="M176 109h28"></path>
<path d="M264 109h28"></path>
<rect x="204" y="98" width="60" height="22" rx="10" ry="10"></rect>
<text x="234" y="113">onend</text>
</g>
<path d="M292 109a10 10 0 0 0 10 -10v-10a10 10 0 0 1 10 -10"></path>
<path d="M156 79a10 10 0 0 1 10 10v40a10 10 0 0 0 10 10"></path>
<g class="terminal ">
<path d="M176 139h0"></path>
<path d="M292 139h0"></path>
<rect x="176" y="128" width="116" height="22" rx="10" ry="10"></rect>
<text x="234" y="143">betweenitems</text>
</g>
<path d="M292 139a10 10 0 0 0 10 -10v-40a10 10 0 0 1 10 -10"></path>
<path d="M156 79a10 10 0 0 1 10 10v70a10 10 0 0 0 10 10"></path>
<g class="terminal ">
<path d="M176 169h20"></path>
<path d="M272 169h20"></path>
<rect x="196" y="158" width="76" height="22" rx="10" ry="10"></rect>
<text x="234" y="173">onempty</text>
</g>
<path d="M292 169a10 10 0 0 0 10 -10v-70a10 10 0 0 1 10 -10"></path>
</g>
<path d="M312 79h10"></path>
<g class="terminal ">
<path d="M322 79h0"></path>
<path d="M358 79h0"></path>
<rect x="322" y="68" width="36" height="22" rx="10" ry="10"></rect>
<text x="340" y="83">%></text>
</g>
<path d="M358 79h10"></path>
<path d="M368 79h10"></path>
<g class="non-terminal ">
<path d="M378 79h0"></path>
<path d="M438 79h0"></path>
<rect x="378" y="68" width="60" height="22"></rect>
<text x="408" y="83">block</text>
</g>
</g>
<path d="M438 79h20"></path>
</g>
<path d="M458 79h10"></path>
<path d="M90 79a10 10 0 0 0 -10 10v89a10 10 0 0 0 10 10"></path>
<g>
<path d="M90 188h368"></path>
</g>
<path d="M458 188a10 10 0 0 0 10 -10v-89a10 10 0 0 0 -10 -10"></path>
</g>
<path d="M468 79h20"></path>
</g>
<path d="M488 79a10 10 0 0 1 10 10v97a10 10 0 0 1 -10 10h-428a10 10 0 0 0 -10 10v0a10 10 0 0 0 10 10"></path>
<g>
<path d="M60 216h136"></path>
<path d="M352 216h136"></path>
<g class="terminal ">
<path d="M196 216h0"></path>
<path d="M232 216h0"></path>
<rect x="196" y="205" width="36" height="22" rx="10" ry="10"></rect>
<text x="214" y="220">&#60;%</text>
</g>
<path d="M232 216h10"></path>
<path d="M242 216h10"></path>
<g class="terminal ">
<path d="M252 216h0"></path>
<path d="M296 216h0"></path>
<rect x="252" y="205" width="44" height="22" rx="10" ry="10"></rect>
<text x="274" y="220">end</text>
</g>
<path d="M296 216h10"></path>
<path d="M306 216h10"></path>
<g class="terminal ">
<path d="M316 216h0"></path>
<path d="M352 216h0"></path>
<rect x="316" y="205" width="36" height="22" rx="10" ry="10"></rect>
<text x="334" y="220">%></text>
</g>
</g>
<path d="M488 216h10"></path>
<path d="M498 216h0"></path>
</g>
<path d="M498 216h10"></path>
<path d="M 508 216 h 20 m -10 -10 v 20 m 10 -20 v 20"></path>
</g>
<style>
	svg {
		background-color: hsl(30,20%,95%);
	}
	path {
		stroke-width: 3;
		stroke: black;
		fill: rgba(0,0,0,0);
	}
	text {
		font: bold 14px monospace;
		text-anchor: middle;
		white-space: pre;
	}
	text.diagram-text {
		font-size: 12px;
	}
	text.diagram-arrow {
		font-size: 16px;
	}
	text.label {
		text-anchor: start;
	}
	text.comment {
		font: italic 12px monospace;
	}
	g.non-terminal text {
		/&#42;font-style: italic;&#42;/
	}
	rect {
		stroke-width: 3;
		stroke: black;
		fill: hsl(120,100%,90%);
	}
	rect.group-box {
		stroke: gray;
		stroke-dasharray: 10 5;
		fill: none;
	}
	path.diagram-text {
		stroke-width: 3;
		stroke: black;
		fill: white;
		cursor: help;
	}
	g.diagram-text:hover path.diagram-text {
		fill: #eee;
	}</style>
</svg>
