<svg class="railroad-diagram" width="668" height="246" viewBox="0 0 668 246" xmlns="http://www.w3.org/2000/svg" xmlns:xlink="http://www.w3.org/1999/xlink">
<g transform="translate(.5 .5)">
<g>
<path d="M20 21v20m10 -20v20m-10 -10h20"></path>
</g>
<path d="M40 31h10"></path>
<g>
<path d="M50 31h0"></path>
<path d="M50 31h10"></path>
<g>
<path d="M60 31h10"></path>
<path d="M70 31h10"></path>
<g>
<path d="M80 31h18"></path>
<path d="M570 31h18"></path>
<g class="terminal ">
<path d="M98 31h0"></path>
<path d="M134 31h0"></path>
<rect x="98" y="20" width="36" height="22" rx="10" ry="10"></rect>
<text x="116" y="35">&#60;%</text>
</g>
<path d="M134 31h10"></path>
<path d="M144 31h10"></path>
<g class="terminal ">
<path d="M154 31h0"></path>
<path d="M198 31h0"></path>
<rect x="154" y="20" width="44" height="22" rx="10" ry="10"></rect>
<text x="176" y="35">for</text>
</g>
<path d="M198 31h10"></path>
<path d="M208 31h10"></path>
<g class="non-terminal ">
<path d="M218 31h0"></path>
<path d="M262 31h0"></path>
<rect x="218" y="20" width="44" height="22"></rect>
<text x="240" y="35">var</text>
</g>
<path d="M262 31h10"></path>
<path d="M272 31h10"></path>
<g class="terminal ">
<path d="M282 31h0"></path>
<path d="M318 31h0"></path>
<rect x="282" y="20" width="36" height="22" rx="10" ry="10"></rect>
<text x="300" y="35">:=</text>
</g>
<path d="M318 31h10"></path>
<path d="M328 31h10"></path>
<g class="non-terminal ">
<path d="M338 31h0"></path>
<path d="M390 31h0"></path>
<rect x="338" y="20" width="52" height="22"></rect>
<text x="364" y="35">expr</text>
</g>
<path d="M390 31h10"></path>
<g>
<path d="M400 31h0"></path>
<path d="M508 31h0"></path>
<path d="M400 31h20"></path>
<g class="terminal ">
<path d="M420 31h16"></path>
<path d="M472 31h16"></path>
<rect x="436" y="20" width="36" height="22" rx="10" ry="10"></rect>
<text x="454" y="35">to</text>
</g>
<path d="M488 31h20"></path>
<path d="M400 31a10 10 0 0 1 10 10v10a10 10 0 0 0 10 10"></path>
<g class="terminal ">
<path d="M420 61h0"></path>
<path d="M488 61h0"></path>
<rect x="420" y="50" width="68" height="22" rx="10" ry="10"></rect>
<text x="454" y="65">downto</text>
</g>
<path d="M488 61a10 10 0 0 0 10 -10v-10a10 10 0 0 1 10 -10"></path>
</g>
<path d="M508 31h10"></path>
<g class="non-terminal ">
<path d="M518 31h0"></path>
<path d="M570 31h0"></path>
<rect x="518" y="20" width="52" height="22"></rect>
<text x="544" y="35">expr</text>
</g>
</g>
<path d="M588 31a10 10 0 0 1 10 10v29a10 10 0 0 1 -10 10h-508a10 10 0 0 0 -10 10v8a10 10 0 0 0 10 10"></path>
<g>
<path d="M80 108h10"></path>
<path d="M578 108h10"></path>
<g>
<path d="M90 108h0"></path>
<path d="M320 108h0"></path>
<path d="M90 108a10 10 0 0 0 10 -10v0a10 10 0 0 1 10 -10"></path>
<g>
<path d="M110 88h190"></path>
</g>
<path d="M300 88a10 10 0 0 1 10 10v0a10 10 0 0 0 10 10"></path>
<path d="M90 108h20"></path>
<g>
<path d="M110 108h0"></path>
<path d="M300 108h0"></path>
<path d="M110 108h10"></path>
<g>
<path d="M120 108h0"></path>
<path d="M290 108h0"></path>
<g>
<path d="M120 108h0"></path>
<path d="M228 108h0"></path>
<path d="M120 108h20"></path>
<g class="terminal ">
<path d="M140 108h8"></path>
<path d="M200 108h8"></path>
<rect x="148" y="97" width="52" height="22" rx="10" ry="10"></rect>
<text x="174" y="112">step</text>
</g>
<path d="M208 108h20"></path>
<path d="M120 108a10 10 0 0 1 10 10v10a10 10 0 0 0 10 10"></path>
<g class="terminal ">
<path d="M140 138h0"></path>
<path d="M208 138h0"></path>
<rect x="140" y="127" width="68" height="22" rx="10" ry="10"></rect>
<text x="174" y="142">offset</text>
</g>
<path d="M208 138a10 10 0 0 0 10 -10v-10a10 10 0 0 1 10 -10"></path>
<path d="M120 108a10 10 0 0 1 10 10v40a10 10 0 0 0 10 10"></path>
<g class="terminal ">
<path d="M140 168h4"></path>
<path d="M204 168h4"></path>
<rect x="144" y="157" width="60" height="22" rx="10" ry="10"></rect>
<text x="174" y="172">limit</text>
</g>
<path d="M208 168a10 10 0 0 0 10 -10v-40a10 10 0 0 1 10 -10"></path>
</g>
<path d="M228 108h10"></path>
<g class="non-terminal ">
<path d="M238 108h0"></path>
<path d="M290 108h0"></path>
<rect x="238" y="97" width="52" height="22"></rect>
<text x="264" y="112">expr</text>
</g>
</g>
<path d="M290 108h10"></path>
<path d="M120 108a10 10 0 0 0 -10 10v59a10 10 0 0 0 10 10"></path>
<g>
<path d="M120 187h170"></path>
</g>
<path d="M290 187a10 10 0 0 0 10 -10v-59a10 10 0 0 0 -10 -10"></path>
</g>
<path d="M300 108h20"></path>
</g>
<path d="M320 108h10"></path>
<g class="terminal ">
<path d="M330 108h0"></path>
<path d="M366 108h0"></path>
<rect x="330" y="97" width="36" height="22" rx="10" ry="10"></rect>
<text x="348" y="112">%></text>
</g>
<path d="M366 108h10"></path>
<path d="M376 108h10"></path>
<g>
<path d="M386 108h0"></path>
<path d="M578 108h0"></path>
<path d="M386 108h10"></path>
<g>
<path d="M396 108h0"></path>
<path d="M568 108h0"></path>
<path d="M396 108h20"></path>
<g class="non-terminal ">
<path d="M416 108h36"></path>
<path d="M512 108h36"></path>
<rect x="452" y="97" width="60" height="22"></rect>
<text x="482" y="112">block</text>
</g>
<path d="M548 108h20"></path>
<path d="M396 108a10 10 0 0 1 10 10v10a10 10 0 0 0 10 10"></path>
<g class="terminal ">
<path d="M416 138h0"></path>
<path d="M548 138h0"></path>
<rect x="416" y="127" width="132" height="22" rx="10" ry="10"></rect>
<text x="482" y="142">&#60;% continue %></text>
</g>
<path d="M548 138a10 10 0 0 0 10 -10v-10a10 10 0 0 1 10 -10"></path>
<path d="M396 108a10 10 0 0 1 10 10v40a10 10 0 0 0 10 10"></path>
<g class="terminal ">
<path d="M416 168h12"></path>
<path d="M536 168h12"></path>
<rect x="428" y="157" width="108" height="22" rx="10" ry="10"></rect>
<text x="482" y="172">&#60;% break %></text>
</g>
<path d="M548 168a10 10 0 0 0 10 -10v-40a10 10 0 0 1 10 -10"></path>
</g>
<path d="M568 108h10"></path>
<path d="M396 108a10 10 0 0 0 -10 10v59a10 10 0 0 0 10 10"></path>
<g>
<path d="M396 187h172"></path>
</g>
<path d="M568 187a10 10 0 0 0 10 -10v-59a10 10 0 0 0 -10 -10"></path>
</g>
</g>
<path d="M588 108h10"></path>
<path d="M598 108h10"></path>
</g>
<path d="M608 108a10 10 0 0 1 10 10v67a10 10 0 0 1 -10 10h-548a10 10 0 0 0 -10 10v0a10 10 0 0 0 10 10"></path>
<g>
<path d="M60 215h196"></path>
<path d="M412 215h196"></path>
<g class="terminal ">
<path d="M256 215h0"></path>
<path d="M292 215h0"></path>
<rect x="256" y="204" width="36" height="22" rx="10" ry="10"></rect>
<text x="274" y="219">&#60;%</text>
</g>
<path d="M292 215h10"></path>
<path d="M302 215h10"></path>
<g class="terminal ">
<path d="M312 215h0"></path>
<path d="M356 215h0"></path>
<rect x="312" y="204" width="44" height="22" rx="10" ry="10"></rect>
<text x="334" y="219">end</text>
</g>
<path d="M356 215h10"></path>
<path d="M366 215h10"></path>
<g class="terminal ">
<path d="M376 215h0"></path>
<path d="M412 215h0"></path>
<rect x="376" y="204" width="36" height="22" rx="10" ry="10"></rect>
<text x="394" y="219">%></text>
</g>
</g>
<path d="M608 215h10"></path>
<path d="M618 215h0"></path>
</g>
<path d="M618 215h10"></path>
<path d="M 628 215 h 20 m -10 -10 v 20 m 10 -20 v 20"></path>
</g>
<style>
	svg {
		background-color: hsl(30,20%,95%);
	}
	path {
		stroke-width: 3;
		stroke: black;
		fill: rgba(0,0,0,0);
	}
	text {
		font: bold 14px monospace;
		text-anchor: middle;
		white-space: pre;
	}
	text.diagram-text {
		font-size: 12px;
	}
	text.diagram-arrow {
		font-size: 16px;
	}
	text.label {
		text-anchor: start;
	}
	text.comment {
		font: italic 12px monospace;
	}
	g.non-terminal text {
		/&#42;font-style: italic;&#42;/
	}
	rect {
		stroke-width: 3;
		stroke: black;
		fill: hsl(120,100%,90%);
	}
	rect.group-box {
		stroke: gray;
		stroke-dasharray: 10 5;
		fill: none;
	}
	path.diagram-text {
		stroke-width: 3;
		stroke: black;
		fill: white;
		cursor: help;
	}
	g.diagram-text:hover path.diagram-text {
		fill: #eee;
	}</style>
</svg>
