<svg class="railroad-diagram" width="776" height="88" viewBox="0 0 776 88" xmlns="http://www.w3.org/2000/svg" xmlns:xlink="http://www.w3.org/1999/xlink">
<g transform="translate(.5 .5)">
<g>
<path d="M20 34v20m10 -20v20m-10 -10h20"></path>
</g>
<path d="M40 44h10"></path>
<g>
<path d="M50 44h0"></path>
<path d="M726 44h0"></path>
<g class="terminal ">
<path d="M50 44h0"></path>
<path d="M86 44h0"></path>
<rect x="50" y="33" width="36" height="22" rx="10" ry="10"></rect>
<text x="68" y="48">&#60;%</text>
</g>
<path d="M86 44h10"></path>
<path d="M96 44h10"></path>
<g class="terminal ">
<path d="M106 44h0"></path>
<path d="M182 44h0"></path>
<rect x="106" y="33" width="76" height="22" rx="10" ry="10"></rect>
<text x="144" y="48">require</text>
</g>
<path d="M182 44h10"></path>
<path d="M192 44h10"></path>
<g class="non-terminal ">
<path d="M202 44h0"></path>
<path d="M254 44h0"></path>
<rect x="202" y="33" width="52" height="22"></rect>
<text x="228" y="48">expr</text>
</g>
<path d="M254 44h10"></path>
<g>
<path d="M264 44h0"></path>
<path d="M424 44h0"></path>
<path d="M264 44a10 10 0 0 0 10 -10v-4a10 10 0 0 1 10 -10"></path>
<g>
<path d="M284 20h120"></path>
</g>
<path d="M404 20a10 10 0 0 1 10 10v4a10 10 0 0 0 10 10"></path>
<path d="M264 44h20"></path>
<g>
<path d="M284 44h0"></path>
<path d="M404 44h0"></path>
<path d="M284 44h10"></path>
<g>
<path d="M294 44h0"></path>
<path d="M394 44h0"></path>
<g class="terminal ">
<path d="M294 44h0"></path>
<path d="M322 44h0"></path>
<rect x="294" y="33" width="28" height="22" rx="10" ry="10"></rect>
<text x="308" y="48">,</text>
</g>
<path d="M322 44h10"></path>
<path d="M332 44h10"></path>
<g class="non-terminal ">
<path d="M342 44h0"></path>
<path d="M394 44h0"></path>
<rect x="342" y="33" width="52" height="22"></rect>
<text x="368" y="48">expr</text>
</g>
</g>
<path d="M394 44h10"></path>
<path d="M294 44a10 10 0 0 0 -10 10v4a10 10 0 0 0 10 10"></path>
<g>
<path d="M294 68h100"></path>
</g>
<path d="M394 68a10 10 0 0 0 10 -10v-4a10 10 0 0 0 -10 -10"></path>
</g>
<path d="M404 44h20"></path>
</g>
<path d="M424 44h10"></path>
<g class="terminal ">
<path d="M434 44h0"></path>
<path d="M470 44h0"></path>
<rect x="434" y="33" width="36" height="22" rx="10" ry="10"></rect>
<text x="452" y="48">%></text>
</g>
<path d="M470 44h10"></path>
<path d="M480 44h10"></path>
<g class="non-terminal ">
<path d="M490 44h0"></path>
<path d="M550 44h0"></path>
<rect x="490" y="33" width="60" height="22"></rect>
<text x="520" y="48">block</text>
</g>
<path d="M550 44h10"></path>
<path d="M560 44h10"></path>
<g class="terminal ">
<path d="M570 44h0"></path>
<path d="M606 44h0"></path>
<rect x="570" y="33" width="36" height="22" rx="10" ry="10"></rect>
<text x="588" y="48">&#60;%</text>
</g>
<path d="M606 44h10"></path>
<path d="M616 44h10"></path>
<g class="terminal ">
<path d="M626 44h0"></path>
<path d="M670 44h0"></path>
<rect x="626" y="33" width="44" height="22" rx="10" ry="10"></rect>
<text x="648" y="48">end</text>
</g>
<path d="M670 44h10"></path>
<path d="M680 44h10"></path>
<g class="terminal ">
<path d="M690 44h0"></path>
<path d="M726 44h0"></path>
<rect x="690" y="33" width="36" height="22" rx="10" ry="10"></rect>
<text x="708" y="48">%></text>
</g>
</g>
<path d="M726 44h10"></path>
<path d="M 736 44 h 20 m -10 -10 v 20 m 10 -20 v 20"></path>
</g>
<style>
	svg {
		background-color: hsl(30,20%,95%);
	}
	path {
		stroke-width: 3;
		stroke: black;
		fill: rgba(0,0,0,0);
	}
	text {
		font: bold 14px monospace;
		text-anchor: middle;
		white-space: pre;
	}
	text.diagram-text {
		font-size: 12px;
	}
	text.diagram-arrow {
		font-size: 16px;
	}
	text.label {
		text-anchor: start;
	}
	text.comment {
		font: italic 12px monospace;
	}
	g.non-terminal text {
		/&#42;font-style: italic;&#42;/
	}
	rect {
		stroke-width: 3;
		stroke: black;
		fill: hsl(120,100%,90%);
	}
	rect.group-box {
		stroke: gray;
		stroke-dasharray: 10 5;
		fill: none;
	}
	path.diagram-text {
		stroke-width: 3;
		stroke: black;
		fill: white;
		cursor: help;
	}
	g.diagram-text:hover path.diagram-text {
		fill: #eee;
	}</style>
</svg>
