<svg class="railroad-diagram" width="600" height="62" viewBox="0 0 600 62" xmlns="http://www.w3.org/2000/svg" xmlns:xlink="http://www.w3.org/1999/xlink">
<g transform="translate(.5 .5)">
<g>
<path d="M20 21v20m10 -20v20m-10 -10h20"></path>
</g>
<path d="M40 31h10"></path>
<g>
<path d="M50 31h0"></path>
<path d="M550 31h0"></path>
<g class="terminal ">
<path d="M50 31h0"></path>
<path d="M86 31h0"></path>
<rect x="50" y="20" width="36" height="22" rx="10" ry="10"></rect>
<text x="68" y="35">&#60;%</text>
</g>
<path d="M86 31h10"></path>
<path d="M96 31h10"></path>
<g class="terminal ">
<path d="M106 31h0"></path>
<path d="M166 31h0"></path>
<rect x="106" y="20" width="60" height="22" rx="10" ry="10"></rect>
<text x="136" y="35">block</text>
</g>
<path d="M166 31h10"></path>
<path d="M176 31h10"></path>
<g class="non-terminal ">
<path d="M186 31h0"></path>
<path d="M238 31h0"></path>
<rect x="186" y="20" width="52" height="22"></rect>
<text x="212" y="35">expr</text>
</g>
<path d="M238 31h10"></path>
<path d="M248 31h10"></path>
<g class="terminal ">
<path d="M258 31h0"></path>
<path d="M294 31h0"></path>
<rect x="258" y="20" width="36" height="22" rx="10" ry="10"></rect>
<text x="276" y="35">%></text>
</g>
<path d="M294 31h10"></path>
<path d="M304 31h10"></path>
<g class="non-terminal ">
<path d="M314 31h0"></path>
<path d="M374 31h0"></path>
<rect x="314" y="20" width="60" height="22"></rect>
<text x="344" y="35">block</text>
</g>
<path d="M374 31h10"></path>
<path d="M384 31h10"></path>
<g class="terminal ">
<path d="M394 31h0"></path>
<path d="M430 31h0"></path>
<rect x="394" y="20" width="36" height="22" rx="10" ry="10"></rect>
<text x="412" y="35">&#60;%</text>
</g>
<path d="M430 31h10"></path>
<path d="M440 31h10"></path>
<g class="terminal ">
<path d="M450 31h0"></path>
<path d="M494 31h0"></path>
<rect x="450" y="20" width="44" height="22" rx="10" ry="10"></rect>
<text x="472" y="35">end</text>
</g>
<path d="M494 31h10"></path>
<path d="M504 31h10"></path>
<g class="terminal ">
<path d="M514 31h0"></path>
<path d="M550 31h0"></path>
<rect x="514" y="20" width="36" height="22" rx="10" ry="10"></rect>
<text x="532" y="35">%></text>
</g>
</g>
<path d="M550 31h10"></path>
<path d="M 560 31 h 20 m -10 -10 v 20 m 10 -20 v 20"></path>
</g>
<style>
	svg {
		background-color: hsl(30,20%,95%);
	}
	path {
		stroke-width: 3;
		stroke: black;
		fill: rgba(0,0,0,0);
	}
	text {
		font: bold 14px monospace;
		text-anchor: middle;
		white-space: pre;
	}
	text.diagram-text {
		font-size: 12px;
	}
	text.diagram-arrow {
		font-size: 16px;
	}
	text.label {
		text-anchor: start;
	}
	text.comment {
		font: italic 12px monospace;
	}
	g.non-terminal text {
		/&#42;font-style: italic;&#42;/
	}
	rect {
		stroke-width: 3;
		stroke: black;
		fill: hsl(120,100%,90%);
	}
	rect.group-box {
		stroke: gray;
		stroke-dasharray: 10 5;
		fill: none;
	}
	path.diagram-text {
		stroke-width: 3;
		stroke: black;
		fill: white;
		cursor: help;
	}
	g.diagram-text:hover path.diagram-text {
		fill: #eee;
	}</style>
</svg>
