<svg class="railroad-diagram" width="600" height="80" viewBox="0 0 600 80" xmlns="http://www.w3.org/2000/svg" xmlns:xlink="http://www.w3.org/1999/xlink">
<g transform="translate(.5 .5)">
<g>
<path d="M20 30v20m10 -20v20m-10 -10h20"></path>
</g>
<path d="M40 40h10"></path>
<g>
<path d="M50 40h0"></path>
<path d="M550 40h0"></path>
<g class="terminal ">
<path d="M50 40h0"></path>
<path d="M86 40h0"></path>
<rect x="50" y="29" width="36" height="22" rx="10" ry="10"></rect>
<text x="68" y="44">&#60;%</text>
</g>
<path d="M86 40h10"></path>
<path d="M96 40h10"></path>
<g class="terminal ">
<path d="M106 40h0"></path>
<path d="M166 40h0"></path>
<rect x="106" y="29" width="60" height="22" rx="10" ry="10"></rect>
<text x="136" y="44">cycle</text>
</g>
<path d="M166 40h10"></path>
<path d="M176 40h10"></path>
<g class="terminal ">
<path d="M186 40h0"></path>
<path d="M214 40h0"></path>
<rect x="186" y="29" width="28" height="22" rx="10" ry="10"></rect>
<text x="200" y="44">(</text>
</g>
<path d="M214 40h10"></path>
<path d="M224 40h10"></path>
<g class="non-terminal ">
<path d="M234 40h0"></path>
<path d="M286 40h0"></path>
<rect x="234" y="29" width="52" height="22"></rect>
<text x="260" y="44">expr</text>
</g>
<path d="M286 40h10"></path>
<g>
<path d="M296 40h0"></path>
<path d="M456 40h0"></path>
<path d="M296 40a10 10 0 0 0 10 -10v0a10 10 0 0 1 10 -10"></path>
<g>
<path d="M316 20h120"></path>
</g>
<path d="M436 20a10 10 0 0 1 10 10v0a10 10 0 0 0 10 10"></path>
<path d="M296 40h20"></path>
<g>
<path d="M316 40h0"></path>
<path d="M436 40h0"></path>
<path d="M316 40h10"></path>
<g>
<path d="M326 40h0"></path>
<path d="M426 40h0"></path>
<g class="terminal ">
<path d="M326 40h0"></path>
<path d="M354 40h0"></path>
<rect x="326" y="29" width="28" height="22" rx="10" ry="10"></rect>
<text x="340" y="44">,</text>
</g>
<path d="M354 40h10"></path>
<path d="M364 40h10"></path>
<g class="non-terminal ">
<path d="M374 40h0"></path>
<path d="M426 40h0"></path>
<rect x="374" y="29" width="52" height="22"></rect>
<text x="400" y="44">expr</text>
</g>
</g>
<path d="M426 40h10"></path>
<path d="M326 40a10 10 0 0 0 -10 10v0a10 10 0 0 0 10 10"></path>
<g>
<path d="M326 60h100"></path>
</g>
<path d="M426 60a10 10 0 0 0 10 -10v0a10 10 0 0 0 -10 -10"></path>
</g>
<path d="M436 40h20"></path>
</g>
<path d="M456 40h10"></path>
<g class="terminal ">
<path d="M466 40h0"></path>
<path d="M494 40h0"></path>
<rect x="466" y="29" width="28" height="22" rx="10" ry="10"></rect>
<text x="480" y="44">)</text>
</g>
<path d="M494 40h10"></path>
<path d="M504 40h10"></path>
<g class="terminal ">
<path d="M514 40h0"></path>
<path d="M550 40h0"></path>
<rect x="514" y="29" width="36" height="22" rx="10" ry="10"></rect>
<text x="532" y="44">%></text>
</g>
</g>
<path d="M550 40h10"></path>
<path d="M 560 40 h 20 m -10 -10 v 20 m 10 -20 v 20"></path>
</g>
<style>
	svg {
		background-color: hsl(30,20%,95%);
	}
	path {
		stroke-width: 3;
		stroke: black;
		fill: rgba(0,0,0,0);
	}
	text {
		font: bold 14px monospace;
		text-anchor: middle;
		white-space: pre;
	}
	text.diagram-text {
		font-size: 12px;
	}
	text.diagram-arrow {
		font-size: 16px;
	}
	text.label {
		text-anchor: start;
	}
	text.comment {
		font: italic 12px monospace;
	}
	g.non-terminal text {
		/&#42;font-style: italic;&#42;/
	}
	rect {
		stroke-width: 3;
		stroke: black;
		fill: hsl(120,100%,90%);
	}
	rect.group-box {
		stroke: gray;
		stroke-dasharray: 10 5;
		fill: none;
	}
	path.diagram-text {
		stroke-width: 3;
		stroke: black;
		fill: white;
		cursor: help;
	}
	g.diagram-text:hover path.diagram-text {
		fill: #eee;
	}</style>
</svg>
