<svg class="railroad-diagram" width="672" height="166" viewBox="0 0 672 166" xmlns="http://www.w3.org/2000/svg" xmlns:xlink="http://www.w3.org/1999/xlink">
<g transform="translate(.5 .5)">
<g>
<path d="M20 21v20m10 -20v20m-10 -10h20"></path>
</g>
<path d="M40 31h10"></path>
<g>
<path d="M50 31h0"></path>
<path d="M50 31h10"></path>
<g>
<path d="M60 31h38"></path>
<path d="M398 31h38"></path>
<g class="terminal ">
<path d="M98 31h0"></path>
<path d="M134 31h0"></path>
<rect x="98" y="20" width="36" height="22" rx="10" ry="10"></rect>
<text x="116" y="35">&#60;%</text>
</g>
<path d="M134 31h10"></path>
<path d="M144 31h10"></path>
<g class="terminal ">
<path d="M154 31h0"></path>
<path d="M190 31h0"></path>
<rect x="154" y="20" width="36" height="22" rx="10" ry="10"></rect>
<text x="172" y="35">if</text>
</g>
<path d="M190 31h10"></path>
<path d="M200 31h10"></path>
<g class="non-terminal ">
<path d="M210 31h0"></path>
<path d="M262 31h0"></path>
<rect x="210" y="20" width="52" height="22"></rect>
<text x="236" y="35">expr</text>
</g>
<path d="M262 31h10"></path>
<path d="M272 31h10"></path>
<g class="terminal ">
<path d="M282 31h0"></path>
<path d="M318 31h0"></path>
<rect x="282" y="20" width="36" height="22" rx="10" ry="10"></rect>
<text x="300" y="35">%></text>
</g>
<path d="M318 31h10"></path>
<path d="M328 31h10"></path>
<g class="non-terminal ">
<path d="M338 31h0"></path>
<path d="M398 31h0"></path>
<rect x="338" y="20" width="60" height="22"></rect>
<text x="368" y="35">block</text>
</g>
</g>
<path d="M436 31a10 10 0 0 1 10 10v0a10 10 0 0 1 -10 10h-376a10 10 0 0 0 -10 10v8a10 10 0 0 0 10 10"></path>
<g>
<path d="M60 79h0"></path>
<path d="M436 79h0"></path>
<path d="M60 79a10 10 0 0 0 10 -10v0a10 10 0 0 1 10 -10"></path>
<g>
<path d="M80 59h336"></path>
</g>
<path d="M416 59a10 10 0 0 1 10 10v0a10 10 0 0 0 10 10"></path>
<path d="M60 79h20"></path>
<g>
<path d="M80 79h0"></path>
<path d="M416 79h0"></path>
<path d="M80 79h10"></path>
<g>
<path d="M90 79h0"></path>
<path d="M406 79h0"></path>
<g class="terminal ">
<path d="M90 79h0"></path>
<path d="M126 79h0"></path>
<rect x="90" y="68" width="36" height="22" rx="10" ry="10"></rect>
<text x="108" y="83">&#60;%</text>
</g>
<path d="M126 79h10"></path>
<path d="M136 79h10"></path>
<g class="terminal ">
<path d="M146 79h0"></path>
<path d="M198 79h0"></path>
<rect x="146" y="68" width="52" height="22" rx="10" ry="10"></rect>
<text x="172" y="83">elif</text>
</g>
<path d="M198 79h10"></path>
<path d="M208 79h10"></path>
<g class="non-terminal ">
<path d="M218 79h0"></path>
<path d="M270 79h0"></path>
<rect x="218" y="68" width="52" height="22"></rect>
<text x="244" y="83">expr</text>
</g>
<path d="M270 79h10"></path>
<path d="M280 79h10"></path>
<g class="terminal ">
<path d="M290 79h0"></path>
<path d="M326 79h0"></path>
<rect x="290" y="68" width="36" height="22" rx="10" ry="10"></rect>
<text x="308" y="83">%></text>
</g>
<path d="M326 79h10"></path>
<path d="M336 79h10"></path>
<g class="non-terminal ">
<path d="M346 79h0"></path>
<path d="M406 79h0"></path>
<rect x="346" y="68" width="60" height="22"></rect>
<text x="376" y="83">block</text>
</g>
</g>
<path d="M406 79h10"></path>
<path d="M90 79a10 10 0 0 0 -10 10v0a10 10 0 0 0 10 10"></path>
<g>
<path d="M90 99h316"></path>
</g>
<path d="M406 99a10 10 0 0 0 10 -10v0a10 10 0 0 0 -10 -10"></path>
</g>
<path d="M416 79h20"></path>
</g>
<path d="M436 79a10 10 0 0 1 10 10v8a10 10 0 0 1 -10 10h-376a10 10 0 0 0 -10 10v8a10 10 0 0 0 10 10"></path>
<g>
<path d="M60 135h46"></path>
<path d="M390 135h46"></path>
<path d="M106 135a10 10 0 0 0 10 -10v0a10 10 0 0 1 10 -10"></path>
<g>
<path d="M126 115h244"></path>
</g>
<path d="M370 115a10 10 0 0 1 10 10v0a10 10 0 0 0 10 10"></path>
<path d="M106 135h20"></path>
<g>
<path d="M126 135h0"></path>
<path d="M370 135h0"></path>
<g class="terminal ">
<path d="M126 135h0"></path>
<path d="M162 135h0"></path>
<rect x="126" y="124" width="36" height="22" rx="10" ry="10"></rect>
<text x="144" y="139">&#60;%</text>
</g>
<path d="M162 135h10"></path>
<path d="M172 135h10"></path>
<g class="terminal ">
<path d="M182 135h0"></path>
<path d="M234 135h0"></path>
<rect x="182" y="124" width="52" height="22" rx="10" ry="10"></rect>
<text x="208" y="139">else</text>
</g>
<path d="M234 135h10"></path>
<path d="M244 135h10"></path>
<g class="terminal ">
<path d="M254 135h0"></path>
<path d="M290 135h0"></path>
<rect x="254" y="124" width="36" height="22" rx="10" ry="10"></rect>
<text x="272" y="139">%></text>
</g>
<path d="M290 135h10"></path>
<path d="M300 135h10"></path>
<g class="non-terminal ">
<path d="M310 135h0"></path>
<path d="M370 135h0"></path>
<rect x="310" y="124" width="60" height="22"></rect>
<text x="340" y="139">block</text>
</g>
</g>
<path d="M370 135h20"></path>
</g>
<path d="M436 135h10"></path>
<path d="M446 135h0"></path>
</g>
<path d="M446 135h10"></path>
<path d="M456 135h10"></path>
<g class="terminal ">
<path d="M466 135h0"></path>
<path d="M502 135h0"></path>
<rect x="466" y="124" width="36" height="22" rx="10" ry="10"></rect>
<text x="484" y="139">&#60;%</text>
</g>
<path d="M502 135h10"></path>
<path d="M512 135h10"></path>
<g class="terminal ">
<path d="M522 135h0"></path>
<path d="M566 135h0"></path>
<rect x="522" y="124" width="44" height="22" rx="10" ry="10"></rect>
<text x="544" y="139">end</text>
</g>
<path d="M566 135h10"></path>
<path d="M576 135h10"></path>
<g class="terminal ">
<path d="M586 135h0"></path>
<path d="M622 135h0"></path>
<rect x="586" y="124" width="36" height="22" rx="10" ry="10"></rect>
<text x="604" y="139">%></text>
</g>
<path d="M622 135h10"></path>
<path d="M 632 135 h 20 m -10 -10 v 20 m 10 -20 v 20"></path>
</g>
<style>
	svg {
		background-color: hsl(30,20%,95%);
	}
	path {
		stroke-width: 3;
		stroke: black;
		fill: rgba(0,0,0,0);
	}
	text {
		font: bold 14px monospace;
		text-anchor: middle;
		white-space: pre;
	}
	text.diagram-text {
		font-size: 12px;
	}
	text.diagram-arrow {
		font-size: 16px;
	}
	text.label {
		text-anchor: start;
	}
	text.comment {
		font: italic 12px monospace;
	}
	g.non-terminal text {
		/&#42;font-style: italic;&#42;/
	}
	rect {
		stroke-width: 3;
		stroke: black;
		fill: hsl(120,100%,90%);
	}
	rect.group-box {
		stroke: gray;
		stroke-dasharray: 10 5;
		fill: none;
	}
	path.diagram-text {
		stroke-width: 3;
		stroke: black;
		fill: white;
		cursor: help;
	}
	g.diagram-text:hover path.diagram-text {
		fill: #eee;
	}</style>
</svg>
