<svg class="railroad-diagram" width="668" height="217" viewBox="0 0 668 217" xmlns="http://www.w3.org/2000/svg" xmlns:xlink="http://www.w3.org/1999/xlink">
<g transform="translate(.5 .5)">
<g>
<path d="M20 21v20m10 -20v20m-10 -10h20"></path>
</g>
<path d="M40 31h10"></path>
<g>
<path d="M50 31h0"></path>
<path d="M50 31h10"></path>
<g>
<path d="M60 31h10"></path>
<path d="M70 31h10"></path>
<g>
<path d="M80 31h108"></path>
<path d="M480 31h108"></path>
<g class="terminal ">
<path d="M188 31h0"></path>
<path d="M224 31h0"></path>
<rect x="188" y="20" width="36" height="22" rx="10" ry="10"></rect>
<text x="206" y="35">&#60;%</text>
</g>
<path d="M224 31h10"></path>
<path d="M234 31h10"></path>
<g class="terminal ">
<path d="M244 31h0"></path>
<path d="M288 31h0"></path>
<rect x="244" y="20" width="44" height="22" rx="10" ry="10"></rect>
<text x="266" y="35">for</text>
</g>
<path d="M288 31h10"></path>
<path d="M298 31h10"></path>
<g class="non-terminal ">
<path d="M308 31h0"></path>
<path d="M352 31h0"></path>
<rect x="308" y="20" width="44" height="22"></rect>
<text x="330" y="35">var</text>
</g>
<path d="M352 31h10"></path>
<path d="M362 31h10"></path>
<g class="terminal ">
<path d="M372 31h0"></path>
<path d="M408 31h0"></path>
<rect x="372" y="20" width="36" height="22" rx="10" ry="10"></rect>
<text x="390" y="35">in</text>
</g>
<path d="M408 31h10"></path>
<path d="M418 31h10"></path>
<g class="non-terminal ">
<path d="M428 31h0"></path>
<path d="M480 31h0"></path>
<rect x="428" y="20" width="52" height="22"></rect>
<text x="454" y="35">expr</text>
</g>
</g>
<path d="M588 31a10 10 0 0 1 10 10v0a10 10 0 0 1 -10 10h-508a10 10 0 0 0 -10 10v8a10 10 0 0 0 10 10"></path>
<g>
<path d="M80 79h10"></path>
<path d="M578 79h10"></path>
<g>
<path d="M90 79h0"></path>
<path d="M320 79h0"></path>
<path d="M90 79a10 10 0 0 0 10 -10v0a10 10 0 0 1 10 -10"></path>
<g>
<path d="M110 59h190"></path>
</g>
<path d="M300 59a10 10 0 0 1 10 10v0a10 10 0 0 0 10 10"></path>
<path d="M90 79h20"></path>
<g>
<path d="M110 79h0"></path>
<path d="M300 79h0"></path>
<path d="M110 79h10"></path>
<g>
<path d="M120 79h0"></path>
<path d="M290 79h0"></path>
<g>
<path d="M120 79h0"></path>
<path d="M228 79h0"></path>
<path d="M120 79h20"></path>
<g class="terminal ">
<path d="M140 79h0"></path>
<path d="M208 79h0"></path>
<rect x="140" y="68" width="68" height="22" rx="10" ry="10"></rect>
<text x="174" y="83">offset</text>
</g>
<path d="M208 79h20"></path>
<path d="M120 79a10 10 0 0 1 10 10v10a10 10 0 0 0 10 10"></path>
<g class="terminal ">
<path d="M140 109h4"></path>
<path d="M204 109h4"></path>
<rect x="144" y="98" width="60" height="22" rx="10" ry="10"></rect>
<text x="174" y="113">limit</text>
</g>
<path d="M208 109a10 10 0 0 0 10 -10v-10a10 10 0 0 1 10 -10"></path>
</g>
<path d="M228 79h10"></path>
<g class="non-terminal ">
<path d="M238 79h0"></path>
<path d="M290 79h0"></path>
<rect x="238" y="68" width="52" height="22"></rect>
<text x="264" y="83">expr</text>
</g>
</g>
<path d="M290 79h10"></path>
<path d="M120 79a10 10 0 0 0 -10 10v29a10 10 0 0 0 10 10"></path>
<g>
<path d="M120 128h170"></path>
</g>
<path d="M290 128a10 10 0 0 0 10 -10v-29a10 10 0 0 0 -10 -10"></path>
</g>
<path d="M300 79h20"></path>
</g>
<path d="M320 79h10"></path>
<g class="terminal ">
<path d="M330 79h0"></path>
<path d="M366 79h0"></path>
<rect x="330" y="68" width="36" height="22" rx="10" ry="10"></rect>
<text x="348" y="83">%></text>
</g>
<path d="M366 79h10"></path>
<path d="M376 79h10"></path>
<g>
<path d="M386 79h0"></path>
<path d="M578 79h0"></path>
<path d="M386 79h10"></path>
<g>
<path d="M396 79h0"></path>
<path d="M568 79h0"></path>
<path d="M396 79h20"></path>
<g class="non-terminal ">
<path d="M416 79h36"></path>
<path d="M512 79h36"></path>
<rect x="452" y="68" width="60" height="22"></rect>
<text x="482" y="83">block</text>
</g>
<path d="M548 79h20"></path>
<path d="M396 79a10 10 0 0 1 10 10v10a10 10 0 0 0 10 10"></path>
<g class="terminal ">
<path d="M416 109h0"></path>
<path d="M548 109h0"></path>
<rect x="416" y="98" width="132" height="22" rx="10" ry="10"></rect>
<text x="482" y="113">&#60;% continue %></text>
</g>
<path d="M548 109a10 10 0 0 0 10 -10v-10a10 10 0 0 1 10 -10"></path>
<path d="M396 79a10 10 0 0 1 10 10v40a10 10 0 0 0 10 10"></path>
<g class="terminal ">
<path d="M416 139h12"></path>
<path d="M536 139h12"></path>
<rect x="428" y="128" width="108" height="22" rx="10" ry="10"></rect>
<text x="482" y="143">&#60;% break %></text>
</g>
<path d="M548 139a10 10 0 0 0 10 -10v-40a10 10 0 0 1 10 -10"></path>
</g>
<path d="M568 79h10"></path>
<path d="M396 79a10 10 0 0 0 -10 10v59a10 10 0 0 0 10 10"></path>
<g>
<path d="M396 158h172"></path>
</g>
<path d="M568 158a10 10 0 0 0 10 -10v-59a10 10 0 0 0 -10 -10"></path>
</g>
</g>
<path d="M588 79h10"></path>
<path d="M598 79h10"></path>
</g>
<path d="M608 79a10 10 0 0 1 10 10v67a10 10 0 0 1 -10 10h-548a10 10 0 0 0 -10 10v0a10 10 0 0 0 10 10"></path>
<g>
<path d="M60 186h196"></path>
<path d="M412 186h196"></path>
<g class="terminal ">
<path d="M256 186h0"></path>
<path d="M292 186h0"></path>
<rect x="256" y="175" width="36" height="22" rx="10" ry="10"></rect>
<text x="274" y="190">&#60;%</text>
</g>
<path d="M292 186h10"></path>
<path d="M302 186h10"></path>
<g class="terminal ">
<path d="M312 186h0"></path>
<path d="M356 186h0"></path>
<rect x="312" y="175" width="44" height="22" rx="10" ry="10"></rect>
<text x="334" y="190">end</text>
</g>
<path d="M356 186h10"></path>
<path d="M366 186h10"></path>
<g class="terminal ">
<path d="M376 186h0"></path>
<path d="M412 186h0"></path>
<rect x="376" y="175" width="36" height="22" rx="10" ry="10"></rect>
<text x="394" y="190">%></text>
</g>
</g>
<path d="M608 186h10"></path>
<path d="M618 186h0"></path>
</g>
<path d="M618 186h10"></path>
<path d="M 628 186 h 20 m -10 -10 v 20 m 10 -20 v 20"></path>
</g>
<style>
	svg {
		background-color: hsl(30,20%,95%);
	}
	path {
		stroke-width: 3;
		stroke: black;
		fill: rgba(0,0,0,0);
	}
	text {
		font: bold 14px monospace;
		text-anchor: middle;
		white-space: pre;
	}
	text.diagram-text {
		font-size: 12px;
	}
	text.diagram-arrow {
		font-size: 16px;
	}
	text.label {
		text-anchor: start;
	}
	text.comment {
		font: italic 12px monospace;
	}
	g.non-terminal text {
		/&#42;font-style: italic;&#42;/
	}
	rect {
		stroke-width: 3;
		stroke: black;
		fill: hsl(120,100%,90%);
	}
	rect.group-box {
		stroke: gray;
		stroke-dasharray: 10 5;
		fill: none;
	}
	path.diagram-text {
		stroke-width: 3;
		stroke: black;
		fill: white;
		cursor: help;
	}
	g.diagram-text:hover path.diagram-text {
		fill: #eee;
	}</style>
</svg>
