<svg class="railroad-diagram" width="472" height="363" viewBox="0 0 472 363" xmlns="http://www.w3.org/2000/svg" xmlns:xlink="http://www.w3.org/1999/xlink">
<g transform="translate(.5 .5)">
<g>
<path d="M20 21v20m10 -20v20m-10 -10h20"></path>
</g>
<path d="M40 31h10"></path>
<g>
<path d="M50 31h0"></path>
<path d="M50 31h10"></path>
<g>
<path d="M60 31h10"></path>
<path d="M70 31h10"></path>
<g>
<path d="M80 31h10"></path>
<path d="M382 31h10"></path>
<g class="terminal ">
<path d="M90 31h0"></path>
<path d="M126 31h0"></path>
<rect x="90" y="20" width="36" height="22" rx="10" ry="10"></rect>
<text x="108" y="35">&#60;%</text>
</g>
<path d="M126 31h10"></path>
<path d="M136 31h10"></path>
<g class="terminal ">
<path d="M146 31h0"></path>
<path d="M190 31h0"></path>
<rect x="146" y="20" width="44" height="22" rx="10" ry="10"></rect>
<text x="168" y="35">for</text>
</g>
<path d="M190 31h10"></path>
<path d="M200 31h10"></path>
<g class="non-terminal ">
<path d="M210 31h0"></path>
<path d="M254 31h0"></path>
<rect x="210" y="20" width="44" height="22"></rect>
<text x="232" y="35">var</text>
</g>
<path d="M254 31h10"></path>
<path d="M264 31h10"></path>
<g class="terminal ">
<path d="M274 31h0"></path>
<path d="M310 31h0"></path>
<rect x="274" y="20" width="36" height="22" rx="10" ry="10"></rect>
<text x="292" y="35">in</text>
</g>
<path d="M310 31h10"></path>
<path d="M320 31h10"></path>
<g class="non-terminal ">
<path d="M330 31h0"></path>
<path d="M382 31h0"></path>
<rect x="330" y="20" width="52" height="22"></rect>
<text x="356" y="35">expr</text>
</g>
</g>
<path d="M392 31a10 10 0 0 1 10 10v4a10 10 0 0 1 -10 10h-312a10 10 0 0 0 -10 10v17a10 10 0 0 0 10 10"></path>
<g>
<path d="M80 92h66"></path>
<path d="M326 92h66"></path>
<path d="M146 92a10 10 0 0 0 10 -10v-4a10 10 0 0 1 10 -10"></path>
<g>
<path d="M166 68h140"></path>
</g>
<path d="M306 68a10 10 0 0 1 10 10v4a10 10 0 0 0 10 10"></path>
<path d="M146 92h20"></path>
<g>
<path d="M166 92h0"></path>
<path d="M306 92h0"></path>
<g class="terminal ">
<path d="M166 92h0"></path>
<path d="M234 92h0"></path>
<rect x="166" y="81" width="68" height="22" rx="10" ry="10"></rect>
<text x="200" y="96">offset</text>
</g>
<path d="M234 92h10"></path>
<path d="M244 92h10"></path>
<g class="non-terminal ">
<path d="M254 92h0"></path>
<path d="M306 92h0"></path>
<rect x="254" y="81" width="52" height="22"></rect>
<text x="280" y="96">expr</text>
</g>
</g>
<path d="M306 92h20"></path>
</g>
<path d="M392 92a10 10 0 0 1 10 10v4a10 10 0 0 1 -10 10h-312a10 10 0 0 0 -10 10v17a10 10 0 0 0 10 10"></path>
<g>
<path d="M80 153h47"></path>
<path d="M345 153h47"></path>
<g>
<path d="M127 153h0"></path>
<path d="M299 153h0"></path>
<path d="M127 153a10 10 0 0 0 10 -10v-4a10 10 0 0 1 10 -10"></path>
<g>
<path d="M147 129h132"></path>
</g>
<path d="M279 129a10 10 0 0 1 10 10v4a10 10 0 0 0 10 10"></path>
<path d="M127 153h20"></path>
<g>
<path d="M147 153h0"></path>
<path d="M279 153h0"></path>
<g class="terminal ">
<path d="M147 153h0"></path>
<path d="M207 153h0"></path>
<rect x="147" y="142" width="60" height="22" rx="10" ry="10"></rect>
<text x="177" y="157">limit</text>
</g>
<path d="M207 153h10"></path>
<path d="M217 153h10"></path>
<g class="non-terminal ">
<path d="M227 153h0"></path>
<path d="M279 153h0"></path>
<rect x="227" y="142" width="52" height="22"></rect>
<text x="253" y="157">expr</text>
</g>
</g>
<path d="M279 153h20"></path>
</g>
<path d="M299 153h10"></path>
<g class="terminal ">
<path d="M309 153h0"></path>
<path d="M345 153h0"></path>
<rect x="309" y="142" width="36" height="22" rx="10" ry="10"></rect>
<text x="327" y="157">%></text>
</g>
</g>
<path d="M392 153h10"></path>
<path d="M402 153h10"></path>
</g>
<path d="M412 153a10 10 0 0 1 10 10v4a10 10 0 0 1 -10 10h-352a10 10 0 0 0 -10 10v4a10 10 0 0 0 10 10"></path>
<g>
<path d="M60 201h80"></path>
<path d="M332 201h80"></path>
<path d="M140 201h10"></path>
<g>
<path d="M150 201h0"></path>
<path d="M322 201h0"></path>
<path d="M150 201h20"></path>
<g class="non-terminal ">
<path d="M170 201h36"></path>
<path d="M266 201h36"></path>
<rect x="206" y="190" width="60" height="22"></rect>
<text x="236" y="205">block</text>
</g>
<path d="M302 201h20"></path>
<path d="M150 201a10 10 0 0 1 10 10v15a10 10 0 0 0 10 10"></path>
<g class="terminal ">
<path d="M170 236h0"></path>
<path d="M302 236h0"></path>
<rect x="170" y="225" width="132" height="22" rx="10" ry="10"></rect>
<text x="236" y="240">&#60;% continue %></text>
</g>
<path d="M302 236a10 10 0 0 0 10 -10v-15a10 10 0 0 1 10 -10"></path>
<path d="M150 201a10 10 0 0 1 10 10v50a10 10 0 0 0 10 10"></path>
<g class="terminal ">
<path d="M170 271h12"></path>
<path d="M290 271h12"></path>
<rect x="182" y="260" width="108" height="22" rx="10" ry="10"></rect>
<text x="236" y="275">&#60;% break %></text>
</g>
<path d="M302 271a10 10 0 0 0 10 -10v-50a10 10 0 0 1 10 -10"></path>
</g>
<path d="M322 201h10"></path>
<path d="M150 201a10 10 0 0 0 -10 10v74a10 10 0 0 0 10 10"></path>
<g>
<path d="M150 295h172"></path>
</g>
<path d="M322 295a10 10 0 0 0 10 -10v-74a10 10 0 0 0 -10 -10"></path>
</g>
<path d="M412 201a10 10 0 0 1 10 10v87a10 10 0 0 1 -10 10h-352a10 10 0 0 0 -10 10v4a10 10 0 0 0 10 10"></path>
<g>
<path d="M60 332h98"></path>
<path d="M314 332h98"></path>
<g class="terminal ">
<path d="M158 332h0"></path>
<path d="M194 332h0"></path>
<rect x="158" y="321" width="36" height="22" rx="10" ry="10"></rect>
<text x="176" y="336">&#60;%</text>
</g>
<path d="M194 332h10"></path>
<path d="M204 332h10"></path>
<g class="terminal ">
<path d="M214 332h0"></path>
<path d="M258 332h0"></path>
<rect x="214" y="321" width="44" height="22" rx="10" ry="10"></rect>
<text x="236" y="336">end</text>
</g>
<path d="M258 332h10"></path>
<path d="M268 332h10"></path>
<g class="terminal ">
<path d="M278 332h0"></path>
<path d="M314 332h0"></path>
<rect x="278" y="321" width="36" height="22" rx="10" ry="10"></rect>
<text x="296" y="336">%></text>
</g>
</g>
<path d="M412 332h10"></path>
<path d="M422 332h0"></path>
</g>
<path d="M422 332h10"></path>
<path d="M 432 332 h 20 m -10 -10 v 20 m 10 -20 v 20"></path>
</g>
<style>
	svg {
		background-color: hsl(30,20%,95%);
	}
	path {
		stroke-width: 3;
		stroke: black;
		fill: rgba(0,0,0,0);
	}
	text {
		font: bold 14px monospace;
		text-anchor: middle;
		white-space: pre;
	}
	text.diagram-text {
		font-size: 12px;
	}
	text.diagram-arrow {
		font-size: 16px;
	}
	text.label {
		text-anchor: start;
	}
	text.comment {
		font: italic 12px monospace;
	}
	g.non-terminal text {
		/&#42;font-style: italic;&#42;/
	}
	rect {
		stroke-width: 3;
		stroke: black;
		fill: hsl(120,100%,90%);
	}
	rect.group-box {
		stroke: gray;
		stroke-dasharray: 10 5;
		fill: none;
	}
	path.diagram-text {
		stroke-width: 3;
		stroke: black;
		fill: white;
		cursor: help;
	}
	g.diagram-text:hover path.diagram-text {
		fill: #eee;
	}</style>
</svg>
