<svg class="railroad-diagram" width="672" height="197" viewBox="0 0 672 197" xmlns="http://www.w3.org/2000/svg" xmlns:xlink="http://www.w3.org/1999/xlink">
<g transform="translate(.5 .5)">
<g>
<path d="M20 21v20m10 -20v20m-10 -10h20"></path>
</g>
<path d="M40 31h10"></path>
<g>
<path d="M50 31h0"></path>
<path d="M50 31h10"></path>
<g>
<path d="M60 31h38"></path>
<path d="M398 31h38"></path>
<g class="terminal ">
<path d="M98 31h0"></path>
<path d="M134 31h0"></path>
<rect x="98" y="20" width="36" height="22" rx="10" ry="10"></rect>
<text x="116" y="35">&#60;%</text>
</g>
<path d="M134 31h10"></path>
<path d="M144 31h10"></path>
<g class="terminal ">
<path d="M154 31h0"></path>
<path d="M190 31h0"></path>
<rect x="154" y="20" width="36" height="22" rx="10" ry="10"></rect>
<text x="172" y="35">if</text>
</g>
<path d="M190 31h10"></path>
<path d="M200 31h10"></path>
<g class="non-terminal ">
<path d="M210 31h0"></path>
<path d="M262 31h0"></path>
<rect x="210" y="20" width="52" height="22"></rect>
<text x="236" y="35">expr</text>
</g>
<path d="M262 31h10"></path>
<path d="M272 31h10"></path>
<g class="terminal ">
<path d="M282 31h0"></path>
<path d="M318 31h0"></path>
<rect x="282" y="20" width="36" height="22" rx="10" ry="10"></rect>
<text x="300" y="35">%></text>
</g>
<path d="M318 31h10"></path>
<path d="M328 31h10"></path>
<g class="non-terminal ">
<path d="M338 31h0"></path>
<path d="M398 31h0"></path>
<rect x="338" y="20" width="60" height="22"></rect>
<text x="368" y="35">block</text>
</g>
</g>
<path d="M436 31a10 10 0 0 1 10 10v4a10 10 0 0 1 -10 10h-376a10 10 0 0 0 -10 10v17a10 10 0 0 0 10 10"></path>
<g>
<path d="M60 92h0"></path>
<path d="M436 92h0"></path>
<path d="M60 92a10 10 0 0 0 10 -10v-4a10 10 0 0 1 10 -10"></path>
<g>
<path d="M80 68h336"></path>
</g>
<path d="M416 68a10 10 0 0 1 10 10v4a10 10 0 0 0 10 10"></path>
<path d="M60 92h20"></path>
<g>
<path d="M80 92h0"></path>
<path d="M416 92h0"></path>
<path d="M80 92h10"></path>
<g>
<path d="M90 92h0"></path>
<path d="M406 92h0"></path>
<g class="terminal ">
<path d="M90 92h0"></path>
<path d="M126 92h0"></path>
<rect x="90" y="81" width="36" height="22" rx="10" ry="10"></rect>
<text x="108" y="96">&#60;%</text>
</g>
<path d="M126 92h10"></path>
<path d="M136 92h10"></path>
<g class="terminal ">
<path d="M146 92h0"></path>
<path d="M198 92h0"></path>
<rect x="146" y="81" width="52" height="22" rx="10" ry="10"></rect>
<text x="172" y="96">elif</text>
</g>
<path d="M198 92h10"></path>
<path d="M208 92h10"></path>
<g class="non-terminal ">
<path d="M218 92h0"></path>
<path d="M270 92h0"></path>
<rect x="218" y="81" width="52" height="22"></rect>
<text x="244" y="96">expr</text>
</g>
<path d="M270 92h10"></path>
<path d="M280 92h10"></path>
<g class="terminal ">
<path d="M290 92h0"></path>
<path d="M326 92h0"></path>
<rect x="290" y="81" width="36" height="22" rx="10" ry="10"></rect>
<text x="308" y="96">%></text>
</g>
<path d="M326 92h10"></path>
<path d="M336 92h10"></path>
<g class="non-terminal ">
<path d="M346 92h0"></path>
<path d="M406 92h0"></path>
<rect x="346" y="81" width="60" height="22"></rect>
<text x="376" y="96">block</text>
</g>
</g>
<path d="M406 92h10"></path>
<path d="M90 92a10 10 0 0 0 -10 10v4a10 10 0 0 0 10 10"></path>
<g>
<path d="M90 116h316"></path>
</g>
<path d="M406 116a10 10 0 0 0 10 -10v-4a10 10 0 0 0 -10 -10"></path>
</g>
<path d="M416 92h20"></path>
</g>
<path d="M436 92a10 10 0 0 1 10 10v17a10 10 0 0 1 -10 10h-376a10 10 0 0 0 -10 10v17a10 10 0 0 0 10 10"></path>
<g>
<path d="M60 166h78"></path>
<path d="M358 166h78"></path>
<path d="M138 166a10 10 0 0 0 10 -10v-4a10 10 0 0 1 10 -10"></path>
<g>
<path d="M158 142h180"></path>
</g>
<path d="M338 142a10 10 0 0 1 10 10v4a10 10 0 0 0 10 10"></path>
<path d="M138 166h20"></path>
<g>
<path d="M158 166h0"></path>
<path d="M338 166h0"></path>
<g class="terminal ">
<path d="M158 166h0"></path>
<path d="M258 166h0"></path>
<rect x="158" y="155" width="100" height="22" rx="10" ry="10"></rect>
<text x="208" y="170">&#60;% else %></text>
</g>
<path d="M258 166h10"></path>
<path d="M268 166h10"></path>
<g class="non-terminal ">
<path d="M278 166h0"></path>
<path d="M338 166h0"></path>
<rect x="278" y="155" width="60" height="22"></rect>
<text x="308" y="170">block</text>
</g>
</g>
<path d="M338 166h20"></path>
</g>
<path d="M436 166h10"></path>
<path d="M446 166h0"></path>
</g>
<path d="M446 166h10"></path>
<path d="M456 166h10"></path>
<g class="terminal ">
<path d="M466 166h0"></path>
<path d="M502 166h0"></path>
<rect x="466" y="155" width="36" height="22" rx="10" ry="10"></rect>
<text x="484" y="170">&#60;%</text>
</g>
<path d="M502 166h10"></path>
<path d="M512 166h10"></path>
<g class="terminal ">
<path d="M522 166h0"></path>
<path d="M566 166h0"></path>
<rect x="522" y="155" width="44" height="22" rx="10" ry="10"></rect>
<text x="544" y="170">end</text>
</g>
<path d="M566 166h10"></path>
<path d="M576 166h10"></path>
<g class="terminal ">
<path d="M586 166h0"></path>
<path d="M622 166h0"></path>
<rect x="586" y="155" width="36" height="22" rx="10" ry="10"></rect>
<text x="604" y="170">%></text>
</g>
<path d="M622 166h10"></path>
<path d="M 632 166 h 20 m -10 -10 v 20 m 10 -20 v 20"></path>
</g>
<style>
	svg {
		background-color: hsl(30,20%,95%);
	}
	path {
		stroke-width: 3;
		stroke: black;
		fill: rgba(0,0,0,0);
	}
	text {
		font: bold 14px monospace;
		text-anchor: middle;
		white-space: pre;
	}
	text.diagram-text {
		font-size: 12px;
	}
	text.diagram-arrow {
		font-size: 16px;
	}
	text.label {
		text-anchor: start;
	}
	text.comment {
		font: italic 12px monospace;
	}
	g.non-terminal text {
		/&#42;font-style: italic;&#42;/
	}
	rect {
		stroke-width: 3;
		stroke: black;
		fill: hsl(120,100%,90%);
	}
	rect.group-box {
		stroke: gray;
		stroke-dasharray: 10 5;
		fill: none;
	}
	path.diagram-text {
		stroke-width: 3;
		stroke: black;
		fill: white;
		cursor: help;
	}
	g.diagram-text:hover path.diagram-text {
		fill: #eee;
	}</style>
</svg>
