<svg class="railroad-diagram" width="480" height="102" viewBox="0 0 480 102" xmlns="http://www.w3.org/2000/svg" xmlns:xlink="http://www.w3.org/1999/xlink">
<g transform="translate(.5 .5)">
<g>
<path d="M20 21v20m10 -20v20m-10 -10h20"></path>
</g>
<path d="M40 31h10"></path>
<g>
<path d="M50 31h0"></path>
<path d="M50 31h10"></path>
<g>
<path d="M60 31h10"></path>
<path d="M410 31h10"></path>
<g class="terminal ">
<path d="M70 31h0"></path>
<path d="M106 31h0"></path>
<rect x="70" y="20" width="36" height="22" rx="10" ry="10"></rect>
<text x="88" y="35">&#60;%</text>
</g>
<path d="M106 31h10"></path>
<path d="M116 31h10"></path>
<g class="terminal ">
<path d="M126 31h0"></path>
<path d="M186 31h0"></path>
<rect x="126" y="20" width="60" height="22" rx="10" ry="10"></rect>
<text x="156" y="35">block</text>
</g>
<path d="M186 31h10"></path>
<path d="M196 31h10"></path>
<g class="terminal ">
<path d="M206 31h0"></path>
<path d="M234 31h0"></path>
<rect x="206" y="20" width="28" height="22" rx="10" ry="10"></rect>
<text x="220" y="35">(</text>
</g>
<path d="M234 31h10"></path>
<path d="M244 31h10"></path>
<g class="non-terminal ">
<path d="M254 31h0"></path>
<path d="M306 31h0"></path>
<rect x="254" y="20" width="52" height="22"></rect>
<text x="280" y="35">expr</text>
</g>
<path d="M306 31h10"></path>
<path d="M316 31h10"></path>
<g class="terminal ">
<path d="M326 31h0"></path>
<path d="M354 31h0"></path>
<rect x="326" y="20" width="28" height="22" rx="10" ry="10"></rect>
<text x="340" y="35">)</text>
</g>
<path d="M354 31h10"></path>
<path d="M364 31h10"></path>
<g class="terminal ">
<path d="M374 31h0"></path>
<path d="M410 31h0"></path>
<rect x="374" y="20" width="36" height="22" rx="10" ry="10"></rect>
<text x="392" y="35">%></text>
</g>
</g>
<path d="M420 31a10 10 0 0 1 10 10v0a10 10 0 0 1 -10 10h-360a10 10 0 0 0 -10 10v0a10 10 0 0 0 10 10"></path>
<g>
<path d="M60 71h62"></path>
<path d="M358 71h62"></path>
<g class="non-terminal ">
<path d="M122 71h0"></path>
<path d="M182 71h0"></path>
<rect x="122" y="60" width="60" height="22"></rect>
<text x="152" y="75">block</text>
</g>
<path d="M182 71h10"></path>
<path d="M192 71h10"></path>
<g class="terminal ">
<path d="M202 71h0"></path>
<path d="M238 71h0"></path>
<rect x="202" y="60" width="36" height="22" rx="10" ry="10"></rect>
<text x="220" y="75">&#60;%</text>
</g>
<path d="M238 71h10"></path>
<path d="M248 71h10"></path>
<g class="terminal ">
<path d="M258 71h0"></path>
<path d="M302 71h0"></path>
<rect x="258" y="60" width="44" height="22" rx="10" ry="10"></rect>
<text x="280" y="75">end</text>
</g>
<path d="M302 71h10"></path>
<path d="M312 71h10"></path>
<g class="terminal ">
<path d="M322 71h0"></path>
<path d="M358 71h0"></path>
<rect x="322" y="60" width="36" height="22" rx="10" ry="10"></rect>
<text x="340" y="75">%></text>
</g>
</g>
<path d="M420 71h10"></path>
<path d="M430 71h0"></path>
</g>
<path d="M430 71h10"></path>
<path d="M 440 71 h 20 m -10 -10 v 20 m 10 -20 v 20"></path>
</g>
<style>
	svg {
		background-color: hsl(30,20%,95%);
	}
	path {
		stroke-width: 3;
		stroke: black;
		fill: rgba(0,0,0,0);
	}
	text {
		font: bold 14px monospace;
		text-anchor: middle;
		white-space: pre;
	}
	text.diagram-text {
		font-size: 12px;
	}
	text.diagram-arrow {
		font-size: 16px;
	}
	text.label {
		text-anchor: start;
	}
	text.comment {
		font: italic 12px monospace;
	}
	g.non-terminal text {
		/&#42;font-style: italic;&#42;/
	}
	rect {
		stroke-width: 3;
		stroke: black;
		fill: hsl(120,100%,90%);
	}
	rect.group-box {
		stroke: gray;
		stroke-dasharray: 10 5;
		fill: none;
	}
	path.diagram-text {
		stroke-width: 3;
		stroke: black;
		fill: white;
		cursor: help;
	}
	g.diagram-text:hover path.diagram-text {
		fill: #eee;
	}</style>
</svg>
