<svg class="railroad-diagram" width="652" height="246" viewBox="0 0 652 246" xmlns="http://www.w3.org/2000/svg" xmlns:xlink="http://www.w3.org/1999/xlink">
<g transform="translate(.5 .5)">
<g>
<path d="M20 21v20m10 -20v20m-10 -10h20"></path>
</g>
<path d="M40 31h10"></path>
<g>
<path d="M50 31h0"></path>
<path d="M50 31h10"></path>
<g>
<path d="M60 31h10"></path>
<path d="M70 31h10"></path>
<g>
<path d="M80 31h10"></path>
<path d="M562 31h10"></path>
<g class="terminal ">
<path d="M90 31h0"></path>
<path d="M126 31h0"></path>
<rect x="90" y="20" width="36" height="22" rx="10" ry="10"></rect>
<text x="108" y="35">&#60;%</text>
</g>
<path d="M126 31h10"></path>
<path d="M136 31h10"></path>
<g class="terminal ">
<path d="M146 31h0"></path>
<path d="M190 31h0"></path>
<rect x="146" y="20" width="44" height="22" rx="10" ry="10"></rect>
<text x="168" y="35">for</text>
</g>
<path d="M190 31h10"></path>
<path d="M200 31h10"></path>
<g class="non-terminal ">
<path d="M210 31h0"></path>
<path d="M254 31h0"></path>
<rect x="210" y="20" width="44" height="22"></rect>
<text x="232" y="35">var</text>
</g>
<path d="M254 31h10"></path>
<path d="M264 31h10"></path>
<g class="terminal ">
<path d="M274 31h0"></path>
<path d="M310 31h0"></path>
<rect x="274" y="20" width="36" height="22" rx="10" ry="10"></rect>
<text x="292" y="35">:=</text>
</g>
<path d="M310 31h10"></path>
<path d="M320 31h10"></path>
<g class="non-terminal ">
<path d="M330 31h0"></path>
<path d="M382 31h0"></path>
<rect x="330" y="20" width="52" height="22"></rect>
<text x="356" y="35">expr</text>
</g>
<path d="M382 31h10"></path>
<g>
<path d="M392 31h0"></path>
<path d="M500 31h0"></path>
<path d="M392 31h20"></path>
<g class="terminal ">
<path d="M412 31h16"></path>
<path d="M464 31h16"></path>
<rect x="428" y="20" width="36" height="22" rx="10" ry="10"></rect>
<text x="446" y="35">to</text>
</g>
<path d="M480 31h20"></path>
<path d="M392 31a10 10 0 0 1 10 10v10a10 10 0 0 0 10 10"></path>
<g class="terminal ">
<path d="M412 61h0"></path>
<path d="M480 61h0"></path>
<rect x="412" y="50" width="68" height="22" rx="10" ry="10"></rect>
<text x="446" y="65">downto</text>
</g>
<path d="M480 61a10 10 0 0 0 10 -10v-10a10 10 0 0 1 10 -10"></path>
</g>
<path d="M500 31h10"></path>
<g class="non-terminal ">
<path d="M510 31h0"></path>
<path d="M562 31h0"></path>
<rect x="510" y="20" width="52" height="22"></rect>
<text x="536" y="35">expr</text>
</g>
</g>
<path d="M572 31a10 10 0 0 1 10 10v29a10 10 0 0 1 -10 10h-492a10 10 0 0 0 -10 10v8a10 10 0 0 0 10 10"></path>
<g>
<path d="M80 108h35"></path>
<path d="M537 108h35"></path>
<g>
<path d="M115 108h0"></path>
<path d="M279 108h0"></path>
<path d="M115 108a10 10 0 0 0 10 -10v0a10 10 0 0 1 10 -10"></path>
<g>
<path d="M135 88h124"></path>
</g>
<path d="M259 88a10 10 0 0 1 10 10v0a10 10 0 0 0 10 10"></path>
<path d="M115 108h20"></path>
<g>
<path d="M135 108h0"></path>
<path d="M259 108h0"></path>
<g class="terminal ">
<path d="M135 108h0"></path>
<path d="M187 108h0"></path>
<rect x="135" y="97" width="52" height="22" rx="10" ry="10"></rect>
<text x="161" y="112">step</text>
</g>
<path d="M187 108h10"></path>
<path d="M197 108h10"></path>
<g class="non-terminal ">
<path d="M207 108h0"></path>
<path d="M259 108h0"></path>
<rect x="207" y="97" width="52" height="22"></rect>
<text x="233" y="112">expr</text>
</g>
</g>
<path d="M259 108h20"></path>
</g>
<path d="M279 108h10"></path>
<g class="terminal ">
<path d="M289 108h0"></path>
<path d="M325 108h0"></path>
<rect x="289" y="97" width="36" height="22" rx="10" ry="10"></rect>
<text x="307" y="112">%></text>
</g>
<path d="M325 108h10"></path>
<path d="M335 108h10"></path>
<g>
<path d="M345 108h0"></path>
<path d="M537 108h0"></path>
<path d="M345 108h10"></path>
<g>
<path d="M355 108h0"></path>
<path d="M527 108h0"></path>
<path d="M355 108h20"></path>
<g class="non-terminal ">
<path d="M375 108h36"></path>
<path d="M471 108h36"></path>
<rect x="411" y="97" width="60" height="22"></rect>
<text x="441" y="112">block</text>
</g>
<path d="M507 108h20"></path>
<path d="M355 108a10 10 0 0 1 10 10v10a10 10 0 0 0 10 10"></path>
<g class="terminal ">
<path d="M375 138h0"></path>
<path d="M507 138h0"></path>
<rect x="375" y="127" width="132" height="22" rx="10" ry="10"></rect>
<text x="441" y="142">&#60;% continue %></text>
</g>
<path d="M507 138a10 10 0 0 0 10 -10v-10a10 10 0 0 1 10 -10"></path>
<path d="M355 108a10 10 0 0 1 10 10v40a10 10 0 0 0 10 10"></path>
<g class="terminal ">
<path d="M375 168h12"></path>
<path d="M495 168h12"></path>
<rect x="387" y="157" width="108" height="22" rx="10" ry="10"></rect>
<text x="441" y="172">&#60;% break %></text>
</g>
<path d="M507 168a10 10 0 0 0 10 -10v-40a10 10 0 0 1 10 -10"></path>
</g>
<path d="M527 108h10"></path>
<path d="M355 108a10 10 0 0 0 -10 10v59a10 10 0 0 0 10 10"></path>
<g>
<path d="M355 187h172"></path>
</g>
<path d="M527 187a10 10 0 0 0 10 -10v-59a10 10 0 0 0 -10 -10"></path>
</g>
</g>
<path d="M572 108h10"></path>
<path d="M582 108h10"></path>
</g>
<path d="M592 108a10 10 0 0 1 10 10v67a10 10 0 0 1 -10 10h-532a10 10 0 0 0 -10 10v0a10 10 0 0 0 10 10"></path>
<g>
<path d="M60 215h188"></path>
<path d="M404 215h188"></path>
<g class="terminal ">
<path d="M248 215h0"></path>
<path d="M284 215h0"></path>
<rect x="248" y="204" width="36" height="22" rx="10" ry="10"></rect>
<text x="266" y="219">&#60;%</text>
</g>
<path d="M284 215h10"></path>
<path d="M294 215h10"></path>
<g class="terminal ">
<path d="M304 215h0"></path>
<path d="M348 215h0"></path>
<rect x="304" y="204" width="44" height="22" rx="10" ry="10"></rect>
<text x="326" y="219">end</text>
</g>
<path d="M348 215h10"></path>
<path d="M358 215h10"></path>
<g class="terminal ">
<path d="M368 215h0"></path>
<path d="M404 215h0"></path>
<rect x="368" y="204" width="36" height="22" rx="10" ry="10"></rect>
<text x="386" y="219">%></text>
</g>
</g>
<path d="M592 215h10"></path>
<path d="M602 215h0"></path>
</g>
<path d="M602 215h10"></path>
<path d="M 612 215 h 20 m -10 -10 v 20 m 10 -20 v 20"></path>
</g>
<style>
	svg {
		background-color: hsl(30,20%,95%);
	}
	path {
		stroke-width: 3;
		stroke: black;
		fill: rgba(0,0,0,0);
	}
	text {
		font: bold 14px monospace;
		text-anchor: middle;
		white-space: pre;
	}
	text.diagram-text {
		font-size: 12px;
	}
	text.diagram-arrow {
		font-size: 16px;
	}
	text.label {
		text-anchor: start;
	}
	text.comment {
		font: italic 12px monospace;
	}
	g.non-terminal text {
		/&#42;font-style: italic;&#42;/
	}
	rect {
		stroke-width: 3;
		stroke: black;
		fill: hsl(120,100%,90%);
	}
	rect.group-box {
		stroke: gray;
		stroke-dasharray: 10 5;
		fill: none;
	}
	path.diagram-text {
		stroke-width: 3;
		stroke: black;
		fill: white;
		cursor: help;
	}
	g.diagram-text:hover path.diagram-text {
		fill: #eee;
	}</style>
</svg>
